<?xml version="1.0" standalone="no"?><!DOCTYPE svg PUBLIC "-//W3C//DTD SVG 1.1//EN" "http://www.w3.org/Graphics/SVG/1.1/DTD/svg11.dtd"><svg class="icon" width="200px" height="200.00px" viewBox="0 0 1024 1024" version="1.1" xmlns="http://www.w3.org/2000/svg"><path d="M738.5 970.9H278V739.5c0-103.5 83.9-187.4 187.4-187.4h85.7c103.5 0 187.4 83.9 187.4 187.4v231.4z" fill="#B0E2F9" /><path d="M551.1 552.1h-67.7c103.5 0 187.4 83.9 187.4 187.4v231.4h67.7V739.5c0-103.5-83.9-187.4-187.4-187.4z" fill="#98D0EA" /><path d="M738.6 985.8H278c-8.2 0-14.9-6.7-14.9-14.9V739.5c0-111.6 90.8-202.3 202.3-202.3h85.7c111.6 0 202.3 90.8 202.3 202.3v231.4c0 8.3-6.6 14.9-14.8 14.9zM292.9 956h430.8V739.5c0-95.1-77.4-172.6-172.6-172.6h-85.7c-95.1 0-172.6 77.4-172.6 172.6V956z" fill="#8A278E" /><path d="M729.2 451.1L624.8 612.9c-54.6 84.6-178.4 84.6-233.1 0L287.3 451.1c-67.2-104.1-52.6-241 35-328.6 102.7-102.7 269.3-102.7 372 0 87.6 87.6 102.2 224.5 34.9 328.6z" fill="#E1F3FC" /><path d="M694.3 122.5c-7-7-14.3-13.5-21.9-19.6 69.8 87.4 77.2 210.9 15.4 306.7L583.3 571.4c-43.3 67.1-130.1 81-191.5 41.7 54.7 84.5 178.4 84.4 233-0.2l104.4-161.7c67.3-104.2 52.7-241.1-34.9-328.7z" fill="#C7D5DC" /><path d="M508.3 691.3c-52.4 0-100.6-26.3-129.1-70.3L274.8 459.2C240.4 406 225.2 342 231.9 279.1c6.7-63 35.1-122.3 79.8-167.1 108.4-108.4 284.7-108.4 393 0 44.8 44.8 73.1 104.1 79.8 167.1 6.7 63-8.5 127-42.9 180.2L637.3 621c-28.4 44-76.6 70.3-129 70.3z m0-630.8c-63.5 0-127.1 24.2-175.5 72.6-82.1 82.1-96 212.5-33 310l104.4 161.7c22.9 35.5 61.8 56.7 104 56.7s81.1-21.2 104-56.7l104.4-161.7c63-97.5 49.1-227.9-33-310-48.2-48.4-111.8-72.6-175.3-72.6zM363.9 985.8c-8.2 0-14.9-6.7-14.9-14.9V831c0-8.2 6.7-14.9 14.9-14.9s14.9 6.7 14.9 14.9v139.9c0 8.3-6.7 14.9-14.9 14.9zM652.6 985.8c-8.2 0-14.9-6.7-14.9-14.9V831c0-8.2 6.7-14.9 14.9-14.9s14.9 6.7 14.9 14.9v139.9c0 8.3-6.6 14.9-14.9 14.9z" fill="#8A278E" /><path d="M327.560679 293.004092a79.3 45.4 36.883 1 0 126.858235 95.189013 79.3 45.4 36.883 1 0-126.858235-95.189013Z" fill="#C7D5DC" /><path d="M688.95276 293.036496a45.4 79.3 53.117 1 0-126.858235 95.189013 45.4 79.3 53.117 1 0 126.858235-95.189013Z" fill="#C7D5DC" /><path d="M425.1 415.4c-3.3 0-6.8-0.2-10.3-0.7-19.7-2.4-40.9-11.6-59.9-25.9s-33.8-32.1-41.6-50.3c-9-21-8.2-40.3 2.5-54.5 20.3-27.1 69.3-23.4 111.5 8.3 19 14.2 33.8 32.1 41.6 50.3 9 21 8.2 40.3-2.5 54.5-9 12-23.4 18.3-41.3 18.3zM357 295.6c-8.1 0-14.3 2.2-17.5 6.4-3.9 5.2-3.5 14.2 1.1 24.8 5.7 13.3 17.4 27.3 32.1 38.3 14.7 11 31.4 18.4 45.7 20.1 11.4 1.4 20.2-0.7 24.1-5.9 3.9-5.2 3.5-14.2-1.1-24.8-5.7-13.3-17.4-27.3-32.1-38.3-18.7-14-38.3-20.6-52.3-20.6zM591.5 415.4c-17.9 0-32.3-6.3-41.3-18.2-10.6-14.2-11.5-33.5-2.5-54.5 7.8-18.2 22.6-36.1 41.6-50.3 42.2-31.7 91.2-35.3 111.5-8.3 10.6 14.2 11.5 33.5 2.5 54.5-7.8 18.2-22.6 36.1-41.6 50.3-19 14.2-40.3 23.4-59.9 25.9-3.6 0.4-7 0.6-10.3 0.6z m68.1-119.8c-14 0-33.6 6.6-52.4 20.6-14.7 11-26.4 25-32.1 38.3-4.6 10.6-5 19.6-1.1 24.8 3.9 5.2 12.7 7.3 24.1 5.9 14.4-1.8 31-9.1 45.7-20.1 14.7-11 26.4-25 32.1-38.3 4.6-10.6 5-19.6 1.1-24.8-3.1-4.2-9.4-6.4-17.4-6.4z" fill="#8A278E" /><path d="M551 592.2h-80c-8.2 0-14.9-6.7-14.9-14.9s6.7-14.9 14.9-14.9h80c8.2 0 14.9 6.7 14.9 14.9 0 8.3-6.7 14.9-14.9 14.9z" fill="#8A278E" /></svg>