<?xml version="1.0" standalone="no"?><!DOCTYPE svg PUBLIC "-//W3C//DTD SVG 1.1//EN" "http://www.w3.org/Graphics/SVG/1.1/DTD/svg11.dtd"><svg class="icon" width="200px" height="200.00px" viewBox="0 0 1024 1024" version="1.1" xmlns="http://www.w3.org/2000/svg"><path d="M1003.1 466.1v196.4c0 7.2-5.9 13.2-13.2 13.2H657.8c-7.2 0-13.2-5.9-13.2-13.2v-85.1h13.2v85H990V466.1H657.7v85h-13.2v-85c0-7.3 5.9-13.2 13.2-13.2H990c7.3 0 13.1 5.9 13.1 13.2z" fill="#8A278E" /><path d="M990 610.3v52.1h-60.4v-13.1h47.2v-39zM990 466.1v144.2h-13.2V479.2h-47.2v-13.1z" fill="#8A278E" /><path d="M929.6 610.3h47.2v39h-47.2z" fill="#AAE0F9" /><path d="M929.6 479.2h47.2v131.1h-47.2z" fill="#E1F3FC" /><path d="M903.3 649.3h26.3v13.2h-26.3zM903.3 610.3h26.3v39h-26.3zM903.3 479.2h26.3v131.1h-26.3z" fill="#8A278E" /><path d="M903.3 466.1h26.3v13.2h-26.3zM835.3 649.3h68v13.2h-68z" fill="#8A278E" /><path d="M835.3 610.3h68v39h-68z" fill="#AAE0F9" /><path d="M835.3 479.2h68v131.1h-68z" fill="#E1F3FC" /><path d="M835.3 466.1h68v13.2h-68zM809 649.3h26.3v13.2H809zM809 610.3h26.3v39H809zM809 479.2h26.3v131.1H809z" fill="#8A278E" /><path d="M809 466.1h26.3v13.2H809zM741.1 649.3h68v13.2h-68z" fill="#8A278E" /><path d="M741.1 610.3h68v39h-68z" fill="#AAE0F9" /><path d="M741.1 479.2h68v131.1h-68z" fill="#E1F3FC" /><path d="M741.1 466.1h68v13.2h-68zM714.8 649.3h26.3v13.2h-26.3zM714.8 610.3h26.3v39h-26.3zM714.8 479.2h26.3v131.1h-26.3z" fill="#8A278E" /><path d="M714.8 466.1h26.3v13.2h-26.3zM714.8 649.3v13.1h-57v-52.1H671v39z" fill="#8A278E" /><path d="M671 610.3h43.8v39H671z" fill="#AAE0F9" /><path d="M671 479.2h43.8v131.1H671z" fill="#E1F3FC" /><path d="M714.8 466.1v13.1H671v131.1h-13.2V466.1zM682.1 301.5v9.8c0 60.2-35.3 112.2-86.2 136.6v-14.7c43.5-23.3 73.1-69.1 73.1-121.9v-9.8H531.3v-13.2H669c7.2 0 13.1 5.9 13.1 13.2z" fill="#8A278E" /><path d="M669 301.5v9.8c0 52.8-29.6 98.6-73.1 121.9V418c35-21.4 58.8-59.6 59.9-103.4H637c1.4-4.3 2.5-8.7 3.4-13.2H669zM644.7 551.1h13.2v26.3h-13.2z" fill="#8A278E" /><path d="M637 314.6h18.8c-1.1 43.7-24.8 81.9-59.9 103.4v-6.1c0-7.3-5.9-13.2-13.2-13.2h-18.9c34.9-16.4 61.7-46.9 73.2-84.1z" fill="#AAE0F9" /><path d="M595.9 551.1h48.8v26.3h-48.8zM531.3 301.5h109.1c-0.9 4.5-2 8.8-3.4 13.2H380.5c0.8 30.5 12.5 58.3 31.4 79.6-11.8-6.6-22.4-14.9-31.7-24.6-8.3-17.7-12.9-37.5-12.9-58.3v-9.8h164z" fill="#8A278E" /><path d="M380.5 314.6H637c-11.5 37.2-38.3 67.7-73.1 84.1H453.5c-5.4 0-10 3.2-12 7.8-10.4-3-20.3-7.1-29.6-12.3-18.9-21.3-30.6-49.1-31.4-79.6z" fill="#E1F3FC" /><path d="M595.9 577.4v105.9c0 7.2-5.9 13.2-13.2 13.2h-25.6v-13.2h25.6V577.4h13.2zM582.7 551.1h13.2v26.3h-13.2zM595.9 447.9v103.2h-13.2v-97.6c4.5-1.7 8.9-3.6 13.2-5.6z" fill="#8A278E" /><path d="M595.9 433.2v14.7c-4.3 2.1-8.7 3.9-13.2 5.6v-14.1c4.6-1.9 9-3.9 13.2-6.2z" fill="#8A278E" /><path d="M595.9 418v15.2c-4.2 2.3-8.6 4.3-13.2 6.2V425c4.6-2.1 9-4.4 13.2-7z" fill="#8A278E" /><path d="M595.9 411.9v6.1c-4.2 2.6-8.6 4.9-13.2 7v-13.1H505c21.1 0 41-4.7 58.9-13.2h18.9c7.2 0 13.1 5.9 13.1 13.2z" fill="#AAE0F9" /><path d="M582.7 577.4v105.9h-25.6c0-7.3-5.9-13.2-13.2-13.2h25.6V457.6c4.5-1.2 8.8-2.6 13.2-4.1V577.4z" fill="#8A278E" /><path d="M582.7 439.3v14.1c-4.3 1.6-8.7 2.9-13.2 4.1v-13.6c4.6-1.3 9-2.8 13.2-4.6z" fill="#8A278E" /><path d="M582.7 425v14.3c-4.3 1.7-8.7 3.3-13.2 4.6v-13.8c4.6-1.4 9-3.1 13.2-5.1z" fill="#8A278E" /><path d="M582.7 411.9V425c-4.3 2-8.6 3.7-13.2 5.1V425h-31.8v-13.2h45zM569.6 457.6v212.6H537.9V462.4c10.9-0.5 21.5-2.1 31.7-4.8z" fill="#AAE0F9" /><path d="M569.6 443.9v13.6c-10.2 2.7-20.8 4.4-31.8 4.9v-13.2c11-0.5 21.7-2.3 31.8-5.3z" fill="#8A278E" /><path d="M569.6 430.1v13.8c-10.1 3-20.8 4.8-31.8 5.4v-13.2c11.1-0.6 21.7-2.7 31.8-6z" fill="#8A278E" /><path d="M569.6 425v5.1c-10.1 3.3-20.7 5.4-31.8 5.9v-11h31.8z" fill="#AAE0F9" /><path d="M453.5 398.7h110.4c-17.9 8.4-37.8 13.2-58.9 13.2h-25.4c-13.2 0-26-1.9-38.1-5.4 2-4.6 6.7-7.8 12-7.8z" fill="#E1F3FC" /><path d="M557.1 696.5v79.7c0 20.6-16.7 37.3-37.2 37.3h-3.5c-20.5 0-37.2-16.7-37.2-37.3v-79.7h13.2v79.7c0 13.3 10.8 24.1 24.1 24.1h3.5c13.3 0 24.1-10.8 24.1-24.1v-79.7h13zM544 683.3h13.2v13.2H544zM557.1 683.3h-19.2v-13.2h6.1c7.2 0.1 13.1 5.9 13.1 13.2zM518.1 160.7c28.8 0 52.2 23.4 52.2 52.2 0 24.2-16.6 44.7-39 50.5v-5.9H505v5.9c-22.4-5.8-39-26.3-39-50.5 0-28.8 23.4-52.2 52.1-52.2z m39 52.1c0-21.5-17.5-39-39-39s-39 17.5-39 39 17.5 39 39 39c21.6 0.1 39-17.4 39-39z" fill="#8A278E" /><path d="M518.1 173.8c21.6 0 39 17.5 39 39s-17.5 39-39 39-39-17.5-39-39 17.5-39 39-39z m25.9 39c0-14.3-11.6-25.9-25.9-25.9-14.3 0-25.8 11.6-25.8 25.9s11.6 25.9 25.8 25.9c14.3 0 25.9-11.6 25.9-25.9zM544 696.5v79.7c0 13.3-10.8 24.1-24.1 24.1h-3.5c-13.3 0-24.1-10.8-24.1-24.1v-79.7h13.2v79.7c0 6.1 4.9 11 10.9 11h3.5c6.1 0 10.9-4.9 10.9-11v-79.7H544zM544 683.3v13.2h-51.7v-13.2h45.5z" fill="#8A278E" /><path d="M518.1 187c14.3 0 25.9 11.6 25.9 25.9s-11.6 25.9-25.9 25.9c-14.3 0-25.8-11.6-25.8-25.9s11.5-25.9 25.8-25.9z" fill="#FFE296" /><path d="M537.8 670.2v13.2h-58.7c0-7.3 5.9-13.2 13.2-13.2h45.5z" fill="#8A278E" /><path d="M537.8 462.4v207.8h-71.1V457.6c12.4 3.3 25.4 5 38.8 5h25.4c2.3 0 4.6-0.1 6.9-0.2z" fill="#E1F3FC" /><path d="M537.8 449.3v13.2c-2.3 0.1-4.7 0.2-7 0.2h-25.4c-13.4 0-26.4-1.7-38.8-5v-13.6c1.2 0.4 2.4 0.7 3.7 1 1.6 0.4 3.1 0.8 4.7 1.2 0.1 0 0.2 0 0.3 0.1 1.6 0.3 3.1 0.7 4.7 0.9 1.4 0.3 2.9 0.5 4.3 0.7 2 0.3 3.9 0.6 5.9 0.8 1.4 0.1 2.7 0.3 4.1 0.3 0.5 0.1 0.9 0.1 1.5 0.1 1.5 0.1 2.9 0.2 4.4 0.2 1.7 0.1 3.4 0.1 5.2 0.1h25.4c2.4-0.1 4.7-0.1 7-0.2z" fill="#8A278E" /><path d="M537.8 436.1v13.2c-2.3 0.1-4.7 0.2-7 0.2h-25.4c-1.7 0-3.5 0-5.2-0.1-1.5 0-2.9-0.1-4.4-0.2-0.5 0-1 0-1.5-0.1-1.4-0.1-2.7-0.2-4.1-0.3-2-0.2-4-0.5-5.9-0.8-1.4-0.2-2.9-0.5-4.3-0.7-1.6-0.3-3.1-0.6-4.7-0.9-0.1 0-0.2 0-0.3-0.1-1.6-0.3-3.1-0.7-4.7-1.2-1.2-0.3-2.4-0.7-3.7-1v-13.8c12.2 4 25.2 6.2 38.8 6.2h25.4c2.4-0.2 4.7-0.3 7-0.4z" fill="#8A278E" /><path d="M537.8 425v11.1c-2.3 0.1-4.7 0.2-7 0.2h-25.4c-13.5 0-26.5-2.2-38.8-6.2V425h71.2z" fill="#AAE0F9" /><path d="M537.8 411.9V425h-71.2v5.1c-4.5-1.5-8.9-3.2-13.2-5.1v-13.1h84.4z" fill="#AAE0F9" /><path d="M505 288.3h26.3v13.2H505zM531.3 263.3v25H505v-25a51.707 51.707 0 0 0 26.3 0z" fill="#8A278E" /><path d="M531.3 257.4v5.9a51.707 51.707 0 0 1-26.3 0v-5.9h26.3z" fill="#8A278E" /><path d="M530.8 696.5v79.7c0 6.1-4.9 11-10.9 11h-3.5c-6.1 0-10.9-4.9-10.9-11v-79.7h25.3z" fill="#AAE0F9" /><path d="M500.2 449.3c1.7 0.1 3.4 0.1 5.2 0.1-1.7 0-3.4 0-5.2-0.1z" fill="#00445D" /><path d="M505 288.3v13.2H367.3v9.8c0 20.8 4.6 40.6 12.9 58.3 0.7 1.5 1.4 2.9 2.1 4.4 0.8 1.6 1.6 3.1 2.5 4.7 0.7 1.3 1.5 2.6 2.2 3.8 0.1 0.1 0.2 0.3 0.2 0.4 0.7 1.2 1.5 2.4 2.3 3.6 1.8 2.7 3.6 5.4 5.6 8 0.9 1.2 1.8 2.4 2.8 3.6 0.3 0.3 0.6 0.7 0.9 1.1 0.8 1 1.6 1.9 2.4 2.8 1 1.2 2.1 2.4 3.2 3.6 1.1 1.2 2.2 2.4 3.4 3.5 1.1 1.2 2.3 2.3 3.5 3.4 1.2 1.1 2.3 2.2 3.6 3.2 0.1 0 0.1 0.1 0.2 0.2 1.2 1 2.3 2 3.5 2.9 1.3 1 2.5 2 3.8 3 1 0.8 2.1 1.5 3.1 2.3l0.9 0.6c1.3 0.9 2.6 1.8 3.9 2.6 2.7 1.8 5.5 3.5 8.3 5 0.3 0.2 0.7 0.3 1 0.6 0.2 0.1 0.5 0.3 0.8 0.4V448c-51-24.4-86.2-76.5-86.2-136.6v-9.8c0-7.3 5.9-13.2 13.2-13.2H505z" fill="#8A278E" /><path d="M495.9 449.1c1.4 0.1 2.9 0.2 4.4 0.2-1.5 0-3-0.1-4.4-0.2zM490.3 448.6c1.3 0.1 2.7 0.2 4.1 0.3-1.4 0-2.7-0.1-4.1-0.3z" fill="#00445D" /><path d="M479.1 683.3h13.2v13.2h-13.2z" fill="#8A278E" /><path d="M466.7 670.2h25.6c-7.3 0-13.2 5.9-13.2 13.2h-25.6V453.5c4.3 1.6 8.7 2.9 13.2 4.1v212.6z" fill="#8A278E" /><path d="M480.1 447.1c1.4 0.3 2.9 0.5 4.3 0.7-1.5-0.2-2.9-0.4-4.3-0.7zM475.3 446.2c1.6 0.3 3.1 0.7 4.7 0.9-1.5-0.3-3.1-0.6-4.7-0.9z" fill="#00445D" /><path d="M479.6 411.9h-26.1V425c-4.5-2.1-8.9-4.4-13.2-7v-6.1c0-1.9 0.4-3.7 1.2-5.4 12.1 3.5 24.9 5.4 38.1 5.4z" fill="#AAE0F9" /><path d="M479.1 683.3v13.2h-25.6c-7.3 0-13.2-5.9-13.2-13.2V577.4h13.2v105.9h25.6z" fill="#8A278E" /><path d="M470.3 444.9c1.6 0.4 3.1 0.8 4.7 1.2-1.5-0.4-3.1-0.7-4.7-1.2zM466.7 443.9c1.2 0.3 2.4 0.7 3.7 1-1.3-0.3-2.5-0.6-3.7-1z" fill="#00445D" /><path d="M466.7 443.9v13.6c-4.4-1.2-8.8-2.6-13.2-4.1v-14.1c0.8 0.3 1.7 0.7 2.6 1 3.4 1.4 7 2.6 10.6 3.6z" fill="#8A278E" /><path d="M466.7 430.1v13.8c-3.6-1-7.1-2.2-10.6-3.6-0.8-0.3-1.7-0.7-2.6-1V425c4.3 2 8.7 3.7 13.2 5.1z" fill="#8A278E" /><path d="M453.5 439.3c0.8 0.3 1.7 0.7 2.6 1-0.9-0.3-1.7-0.6-2.6-1z" fill="#00445D" /><path d="M440.4 551.1h13.2v26.3h-13.2zM453.5 453.4V551h-13.2V447.9c4.3 2 8.7 3.9 13.2 5.5z" fill="#8A278E" /><path d="M453.5 439.3v14.1c-4.5-1.6-8.9-3.5-13.2-5.6v-14.7c2.2 1.2 4.5 2.4 6.9 3.4 2.1 1.1 4.2 2 6.3 2.8z" fill="#8A278E" /><path d="M453.5 425v14.3l-6.3-2.7c-2.3-1.1-4.7-2.2-6.9-3.5V418c4.3 2.6 8.7 4.9 13.2 7z" fill="#8A278E" /><path d="M447.3 436.6c2.1 0.9 4.1 1.9 6.3 2.7-2.2-0.8-4.3-1.7-6.3-2.7zM440.4 433.1c2.2 1.2 4.5 2.4 6.9 3.5-2.4-1-4.7-2.2-6.9-3.5z" fill="#00445D" /><path d="M441.5 406.5c-0.7 1.6-1.2 3.4-1.2 5.4v6.1c-10.6-6.5-20.2-14.5-28.4-23.8 9.3 5.2 19.2 9.4 29.6 12.3z" fill="#AAE0F9" /><path d="M391.6 551.1h48.8v26.3h-48.8z" fill="#8A278E" /><path d="M440.4 433.1c-0.3-0.1-0.5-0.2-0.8-0.4 0.2 0.2 0.5 0.3 0.8 0.4z" fill="#00445D" /><path d="M440.4 418v15.1c-0.3-0.1-0.5-0.3-0.8-0.4-0.3-0.2-0.7-0.4-1-0.6-2.8-1.6-5.6-3.3-8.3-5-1.3-0.8-2.6-1.7-3.9-2.6l-0.9-0.6c-1-0.8-2.1-1.5-3.1-2.3-1.3-1-2.6-2-3.8-3-1.2-1-2.4-2-3.5-2.9 0-0.1-0.1-0.1-0.2-0.2-1.2-1-2.4-2.1-3.6-3.2-1.2-1.1-2.3-2.2-3.5-3.4-1.2-1.1-2.3-2.3-3.4-3.5-1.1-1.2-2.2-2.3-3.2-3.6-0.8-0.9-1.6-1.9-2.4-2.8-0.3-0.3-0.6-0.7-0.9-1.1-1-1.2-1.9-2.4-2.8-3.6-2-2.6-3.8-5.2-5.6-8-0.8-1.2-1.5-2.4-2.3-3.6-0.1-0.1-0.2-0.3-0.2-0.4-0.8-1.3-1.5-2.6-2.2-3.8-0.8-1.5-1.7-3.1-2.5-4.7-0.7-1.4-1.4-2.9-2.1-4.4 9.3 9.6 20 17.9 31.7 24.6 8.2 9.5 17.8 17.5 28.5 24z" fill="#8A278E" /><path d="M430.3 427.2c2.7 1.7 5.5 3.4 8.3 5-2.9-1.5-5.6-3.2-8.3-5zM426.4 424.6c1.3 0.9 2.6 1.8 3.9 2.6-1.3-0.8-2.6-1.7-3.9-2.6zM422.4 421.7c1 0.7 2 1.5 3.1 2.3-1.1-0.8-2.1-1.5-3.1-2.3zM418.6 418.7c1.3 1 2.5 2 3.8 3-1.3-1-2.6-1.9-3.8-3zM415 415.8c1.2 1 2.3 2 3.5 2.9-1.1-0.9-2.3-1.9-3.5-2.9zM411.3 412.4c1.2 1.1 2.4 2.2 3.6 3.2-1.3-1.1-2.4-2.1-3.6-3.2zM407.8 409c1.1 1.2 2.3 2.3 3.5 3.4-1.2-1.1-2.3-2.2-3.5-3.4z" fill="#00445D" /><path d="M404.5 405.6c1.1 1.2 2.2 2.3 3.4 3.5-1.2-1.2-2.3-2.4-3.4-3.5zM401.3 402c1 1.2 2.1 2.4 3.2 3.6-1.1-1.2-2.2-2.4-3.2-3.6zM398.8 399.2c0.8 0.9 1.6 1.9 2.4 2.8-0.8-1-1.6-1.9-2.4-2.8zM395.2 394.5c0.9 1.2 1.8 2.4 2.8 3.6-1-1.2-1.9-2.4-2.8-3.6z" fill="#00445D" /><path d="M391.6 577.4v85.1c0 7.2-5.9 13.2-13.2 13.2H46.3c-7.3 0-13.2-5.9-13.2-13.2V466.1c0-7.3 5.9-13.2 13.2-13.2h332.2c7.2 0 13.2 5.9 13.2 13.2v85h-13.2v-85H46.3v196.4H378.5v-85h13.1z" fill="#8A278E" /><path d="M378.5 551.1h13.2v26.3h-13.2z" fill="#8A278E" /><path d="M387.3 382.9c0.7 1.2 1.5 2.4 2.3 3.6-0.8-1.2-1.6-2.4-2.3-3.6zM384.8 378.7c0.7 1.3 1.5 2.6 2.2 3.8-0.7-1.3-1.5-2.6-2.2-3.8zM380.2 369.6c0.7 1.5 1.4 2.9 2.1 4.4-0.7-1.4-1.4-2.9-2.1-4.4z" fill="#00445D" /><path d="M378.5 610.3v52.1h-60.4v-13.1h47.2v-39zM378.5 577.4v32.9h-13.2V479.2h-47.2v-13.1h60.4v85z" fill="#8A278E" /><path d="M318.1 610.3h47.2v39h-47.2z" fill="#AAE0F9" /><path d="M318.1 479.2h47.2v131.1h-47.2z" fill="#E1F3FC" /><path d="M291.8 649.3h26.3v13.2h-26.3zM291.8 610.3h26.3v39h-26.3zM291.8 479.2h26.3v131.1h-26.3z" fill="#8A278E" /><path d="M291.8 466.1h26.3v13.2h-26.3zM223.9 649.3h68v13.2h-68z" fill="#8A278E" /><path d="M223.9 610.3h68v39h-68z" fill="#AAE0F9" /><path d="M223.9 479.2h68v131.1h-68z" fill="#E1F3FC" /><path d="M223.9 466.1h68v13.2h-68zM197.6 649.3h26.3v13.2h-26.3zM197.6 610.3h26.3v39h-26.3z" fill="#8A278E" /><path d="M197.6 479.2h26.3v131.1h-26.3z" fill="#8A278E" /><path d="M197.6 466.1h26.3v13.2h-26.3zM129.6 649.3h68v13.2h-68z" fill="#8A278E" /><path d="M129.6 610.3h68v39h-68z" fill="#AAE0F9" /><path d="M129.6 479.2h68v131.1h-68z" fill="#E1F3FC" /><path d="M129.6 466.1h68v13.2h-68zM103.3 649.3h26.3v13.2h-26.3zM103.3 610.3h26.3v39h-26.3zM103.3 479.2h26.3v131.1h-26.3z" fill="#8A278E" /><path d="M103.3 466.1h26.3v13.2h-26.3zM103.3 649.3v13.1h-57v-52.1h13.1v39z" fill="#8A278E" /><path d="M59.4 610.3h43.9v39H59.4z" fill="#AAE0F9" /><path d="M59.4 479.2h43.9v131.1H59.4z" fill="#E1F3FC" /><path d="M103.3 466.1v13.1H59.4v131.1H46.3V466.1z" fill="#8A278E" /></svg>