<?xml version="1.0" standalone="no"?><!DOCTYPE svg PUBLIC "-//W3C//DTD SVG 1.1//EN" "http://www.w3.org/Graphics/SVG/1.1/DTD/svg11.dtd"><svg class="icon" width="200px" height="200.00px" viewBox="0 0 1024 1024" version="1.1" xmlns="http://www.w3.org/2000/svg"><path d="M562.2 462.2H460.5c-125.9 0-227.9 102.1-227.9 227.9v277.7h557.6V690.1c-0.1-125.9-102.1-227.9-228-227.9z" fill="#E1F3FC" /><path d="M562.9 462.9h-52.7c125.9 0 227.9 102 227.9 227.9v277.7h52.7V690.8c0.1-125.8-102-227.9-227.9-227.9z" fill="#CEDFE8" /><path d="M803.7 981.3H219V690.1c0-133.2 108.3-241.5 241.5-241.5h101.7c133.2 0 241.5 108.3 241.5 241.5v291.2z m-557.6-27.1h530.5V690.1c0-118.2-96.2-214.4-214.4-214.4H460.5c-118.2 0-214.4 96.2-214.4 214.4v264.1z" fill="#8A278E" /><path d="M337.3 969.3c-7.5 0-13.6-6.1-13.6-13.6V694.9c0-7.5 6.1-13.6 13.6-13.6s13.6 6.1 13.6 13.6v260.8c-0.1 7.5-6.1 13.6-13.6 13.6zM685.4 969.3c-7.5 0-13.6-6.1-13.6-13.6V694.9c0-7.5 6.1-13.6 13.6-13.6s13.6 6.1 13.6 13.6v260.8c0 7.5-6.1 13.6-13.6 13.6z" fill="#8A278E" /><path d="M694.7 554.3c37.8-42.8 60.9-99 61.2-160.5 0.7-134.3-108.5-245-242.8-245.9-135.9-0.9-246.3 109-246.3 244.6 0 62.1 23.1 118.7 61.2 161.8a616.41 616.41 0 0 0 366.7 0z" fill="#B0E2F9" /><path d="M511.3 595.9c-63 0-126.1-9.5-187.4-28.6-2.4-0.7-4.5-2.1-6.1-4-41.7-47.2-64.6-107.8-64.6-170.8 0-69.3 27.1-134.3 76.2-183.2 48.7-48.4 113.3-75 181.9-75h1.8c142.1 1 257.1 117.4 256.3 259.5-0.3 62.4-23.3 122.6-64.6 169.4-1.6 1.9-3.8 3.2-6.1 4-61.3 19.1-124.3 28.7-187.4 28.7z m-175.6-53.4c115 35 236.3 35 351.3 0 35.4-41.5 55-94.1 55.3-148.7 0.7-127.2-102.2-231.4-229.3-232.3h-1.6c-61.4 0-119.2 23.8-162.8 67.1-44 43.7-68.2 101.9-68.2 163.9-0.1 55.1 19.6 108.2 55.3 150z" fill="#8A278E" /><path d="M663.3 482.4c31.3-28.3 50.4-65.3 50.7-105.9 0.6-88.7-89.9-161.6-201.2-162.3-112.6-0.6-204.1 71.9-204.1 161.4 0 40.9 19.2 78.3 50.7 106.8 98.9 24.5 204.9 24.5 303.9 0z" fill="#C7D5DC" /><path d="M632.2 456.9c24.9-22.5 40.1-52 40.4-84.3 0.5-70.5-71.5-128.6-160.1-129.1-89.6-0.5-162.4 57.2-162.4 128.4 0 32.6 15.2 62.3 40.4 85 78.7 19.5 163 19.5 241.7 0z" fill="#E6F5FC" /><path d="M511.3 514.4c-52.2 0-104.4-6.3-155.2-18.9-2.2-0.5-4.2-1.6-5.8-3.1-35.6-32.1-55.2-73.6-55.2-116.9 0-40.2 17.2-79.4 48.4-110.4 41.3-41.1 102.4-64.5 167.9-64.5h1.5c65.4 0.4 126.4 24.4 167.4 65.9 30.8 31.1 47.5 70.2 47.3 110-0.3 42.9-19.9 84.1-55.2 115.9-1.7 1.5-3.7 2.6-5.8 3.1-50.8 12.7-103 18.9-155.3 18.9zM366 470.1c95.2 23 195.5 23 290.7 0 28-26.3 43.5-59.5 43.8-93.7 0.2-33-13.4-64.4-39.5-90.7-36-36.5-90.1-57.6-148.3-57.9h-1.4c-58.3 0-112.5 20.6-148.7 56.6-26.4 26.3-40.4 57.8-40.4 91.2 0 34.5 15.5 67.9 43.8 94.5zM691 95.7h27.1V243H691zM608.5 939.2H414.1c-7.5 0-13.6-6.1-13.6-13.6V772c0-7.5 6.1-13.6 13.6-13.6h194.4c7.5 0 13.6 6.1 13.6 13.6v153.7c0 7.5-6.1 13.5-13.6 13.5z m-180.8-27.1H595V785.5H427.7v126.6z" fill="#8A278E" /><path d="M549 848.8m-25.1 0a25.1 25.1 0 1 0 50.2 0 25.1 25.1 0 1 0-50.2 0Z" fill="#F39BC2" /><path d="M549 883.7c-19.3 0-34.9-15.7-34.9-34.9 0-19.3 15.7-34.9 34.9-34.9s34.9 15.7 34.9 34.9c0 19.3-15.6 34.9-34.9 34.9z m0-50.2c-8.4 0-15.3 6.9-15.3 15.3s6.9 15.3 15.3 15.3 15.3-6.9 15.3-15.3-6.8-15.3-15.3-15.3z" fill="#8A278E" /><path d="M558.1 646.8h90.4V715h-90.4z" fill="#F39BC2" /><path d="M648.5 724.7h-90.4c-5.4 0-9.8-4.4-9.8-9.8v-68.2c0-5.4 4.4-9.8 9.8-9.8h90.4c5.4 0 9.8 4.4 9.8 9.8V715c0 5.4-4.4 9.7-9.8 9.7z m-80.7-19.5h70.8v-48.6h-70.8v48.6z" fill="#8A278E" /><path d="M558.1 680.9h90.4V715h-90.4z" fill="#B0E2F9" /><path d="M648.5 724.7h-90.4c-5.4 0-9.8-4.4-9.8-9.8v-34.1c0-5.4 4.4-9.8 9.8-9.8h90.4c5.4 0 9.8 4.4 9.8 9.8V715c0 5.4-4.4 9.7-9.8 9.7z m-80.7-19.5h70.8v-14.5h-70.8v14.5z" fill="#8A278E" /><path d="M706 76.6m-39.2 0a39.2 39.2 0 1 0 78.4 0 39.2 39.2 0 1 0-78.4 0Z" fill="#F39BC2" /><path d="M706 129.4c-29.1 0-52.7-23.7-52.7-52.7S677 23.9 706 23.9c29.1 0 52.7 23.7 52.7 52.7s-23.6 52.8-52.7 52.8z m0-78.4c-14.1 0-25.6 11.5-25.6 25.6s11.5 25.6 25.6 25.6c14.1 0 25.6-11.5 25.6-25.6S720.2 51 706 51z" fill="#8A278E" /></svg>